<svg xmlns="http://www.w3.org/2000/svg" version="1.1" viewBox="0 0 150 150.00001">
 <path fill="#707070" d="m21 .87c-.11-.006-.34.67-.51 1.6-.43 2.2-1 3.2-2.1 3.6-.47.15-3.2.26-6 .26-4.4-.011-5.1.078-4.8.62 1 2.2 1.4 3.7 1.1 4.4-.26.68-1.3 1.6-4.7 4l-4 4c-.0010 0 .62 0 1.4 1 3.1 1.5 3.2 2.4 1 9l-1.6 4.9 2.1-.30c3.5-.50 3.8-.11 5.9 6.4l1.6 5.1.72-.71c.40-.39 1.2-.73 1.9-.76 2.1-.098 2.5.49 4.1 5.3l1.5 4.4.71-.70c.39-.39 1.2-.72 1.9-.75 2.1-.098 2.5.49 4.1 5.3l1.5 4.4.71-.70c.39-.39 1.2-.72 1.9-.75 2.1-.098 2.5.49 4.1 5.3l1.5 4.4.71-.70c.39-.39 1.2-.72 1.9-.75 2.1-.098 2.5.49 4.1 5.3l1.5 4.4.71-.70c.39-.39 1.2-.72 1.9-.75 2.1-.098 2.5.49 4.1 5.3l1.5 4.4.69-.68c.87-.86 2.6-1.1 3.7-.43.61.38 1.1 1.4 2.1 4.4l1.3 3.9c-6.6 6.5-2.4 12 4.6 19l15 15 15 16c7.2 7.7 14 9.4 21 2.8l5.9-5.8c13-13 12-12 12-17l-.22-2.5 7-6.8c4-3.9 7.6-7.7 8.4-8.7 2-2.8 2.9-5.3 2.9-8.5-.010-2.6-2.8-21-4.1-26-1.4-6.2-4.7-12-8.7-15-2.2-1.6-2.6-1.9-5.2-3-2.7-1.1-6.9-1.5-10-.89-4.8.84-9.2 3.2-13 7.2l-2.4 2.4-2.5-2.3c-4.5-4.2-6.7-4-12 1.2-2.2 2.2-2.6 2.4-3.2 2.2-1.2-.38-1.6-1-3-5.2-.74-2.2-1.4-4.1-1.4-4.1-.058-.059-.41.18-.78.54-.78.75-1.7.93-2.8.56-1.3-.41-1.7-.99-3.1-5.2-.74-2.2-1.4-4.1-1.4-4.1-.058-.059-.41.18-.78.54-.78.75-1.7.93-2.8.56-1.3-.41-1.7-.99-3.1-5.2-.74-2.2-1.4-4.1-1.4-4.1-.058-.059-.41.18-.78.54-.78.75-1.7.93-2.8.56-1.3-.41-1.7-.99-3.1-5.2-.74-2.2-1.4-4.1-1.4-4.1-.058-.059-.41.19-.78.54-.78.75-1.7.93-2.8.56-1.3-.41-1.7-.99-3.1-5.2-.74-2.2-1.4-4.1-1.4-4.1-.058-.059-.41.18-.78.54-.78.75-1.7.93-2.8.56-1.3-.41-1.7-.99-3.1-5.2-.74-2.2-1.4-4.1-1.4-4.1-.058-.059-.41.18-.78.54-.78.75-1.7.93-2.8.56-1.3-.41-1.7-.99-3.1-5.2-.74-2.2-1.4-4.1-1.4-4.1-.058-.059-.71.49-1.5 1.2-1.5 1.5-2.4 1.9-3.5 1.5-.60-.19-8.1-5.4-8.9-6.2-.007-.007-.014-.010-.021-.011zm1 11c2.4.003 5 .97 7.4 3.5l26 27 28 28-7.8 7.7-7.8 7.7-27-28c-15-15-27-28-28-29-2.9-3.7-2.5-9.6 1.1-13 2.2-2 5.1-3.6 8.3-3.6zm1.2 4.5a7.7 7.5 45 0 0 -5.5 2.1 7.7 7.5 45 0 0 .055 11 7.7 7.5 45 0 0 11 .24 7.7 7.5 45 0 0 -.055 -11 7.7 7.5 45 0 0 -5.3 -2.3zm97 47c.93-.034 1.9.078 2.9.32 3.6.89 6.6 4.7 7.9 10 .63 2.6 3.7 21 3.8 22 .11 2.2-.73 3.5-4.7 7.5-2 2-3.8 3.6-3.9 3.5-.090-.11-.46-4.2-.81-9.1-.70-8.7-4.3-15-8.6-20l-7.4-7.7 2.5-2.4c3-3 5.6-4.4 8.3-4.5z"/>
</svg>
