<svg xmlns="http://www.w3.org/2000/svg" version="1.1" viewBox="0 0 280 280">
 <path fill="#707070" d="m2.6e2 48-8 5.2c-5.6-5.6-13-9.8-20-12l1.1-5.8c1-5-2.2-9.9-7.2-11l-.56-.14c-5-1-9.9 2.5-11 7.4l-2 8.1c-6.1.84-12 3.1-18 6.6l-4.8-7.2c-2.8-4.2-7.4-5.5-12-2.7l-.47.31c-4.2 2.8-6.5 8.5-3.7 13l5 7.7-22 15-5-7.7c-2.8-4.2-7.4-5.5-12-2.7l-.47.31c-4.2 2.8-6.5 8.5-3.7 13l5 7.7-23 15-5-7.7c-2.8-4.2-7.4-5.5-12-2.7l-.47.31c-4.2 2.8-6.5 8.5-3.7 13l5 7.7-22 14c-3.9-4.1-9.5-4.4-14-1.5l-22 15-15-23c-2.8-4.2-7.4-5.5-12-2.7l-.47.31c-4.2 2.8-6.5 8.5-3.7 13l15 23-4.8 3.2c-5.1 3.4-9.6 11-9.8 17l-1.6 42c-.16 6.1 2 15 5.4 21l19 29c3.4 5.1 11 6.5 16 3.2l74-48c4.5-2.9 5.8-9.1 4.2-13l22-14 3.8 5.8c2.8 4.2 9.6 5.4 14 2.6l.47-.31c4.2-2.8 4.3-8.4 1.6-13l-3.8-5.8 23-15 3.8 5.8c2.8 4.2 9.6 5.4 14 2.6l.47-.31c4.2-2.8 4.3-8.4 1.6-13l-3.8-5.8 22-15 3.8 5.8c2.8 4.2 9.6 5.4 14 2.6l.47-.31c4.2-2.8 4.3-8.4 1.6-13l-4.1-6.3c5.5-3.8 10-8.7 13-14l7.5 1.4c5 1 10-2.2 11-7.2l.16-.58c1-5-2.5-9.9-7.5-11l-4.4-.72c.98-7.6.24-15-2.7-23l8-5.2c4.2-2.8 4.3-8.4 1.6-13l-.31-.47c-2.8-4.2-7.4-5.5-12-2.7zm-38 57c-8.5 5.6-20 3.2-25-5.3-5.6-8.5-3.2-20 5.3-25 8.5-5.6 20-3.2 25 5.3 5.6 8.5 3.2 20-5.3 25z"/>
</svg>
